<?xml version="1.0" standalone="no"?>
<!DOCTYPE svg PUBLIC "-//W3C//DTD SVG 20010904//EN"
 "http://www.w3.org/TR/2001/REC-SVG-20010904/DTD/svg10.dtd">
<svg version="1.0" xmlns="http://www.w3.org/2000/svg"
 width="350.000000pt" height="350.000000pt" viewBox="0 0 350.000000 350.000000"
 preserveAspectRatio="xMidYMid meet">
<metadata>
Created by potrace 1.11, written by Peter Selinger 2001-2013
</metadata>
<g transform="translate(0.000000,350.000000) scale(0.100000,-0.100000)"
fill="#000000" stroke="none">
<path d="M0 2270 c0 -676 3 -1230 8 -1231 42 -4 64 -3 68 3 3 4 52 8 110 8 57
0 104 3 104 8 0 4 24 6 52 6 29 -1 58 2 63 6 6 4 24 7 40 5 17 -1 35 1 40 5 6
4 51 13 100 20 50 7 95 16 100 19 6 4 19 7 30 7 11 -1 22 1 25 4 3 3 37 13 75
23 39 10 75 20 80 21 6 2 23 8 38 14 16 7 32 12 37 12 5 0 21 5 37 12 15 6 31
11 36 10 4 -1 7 2 7 7 0 5 10 11 23 14 24 5 169 69 177 78 3 3 35 22 73 43 37
20 67 42 67 48 0 6 3 8 7 5 3 -4 26 9 50 29 23 19 43 33 43 30 0 -3 18 11 40
32 22 20 55 50 74 66 19 17 33 33 30 37 -2 4 6 16 19 26 12 10 34 36 47 58 13
22 30 46 37 53 7 7 13 20 13 27 0 8 7 18 16 23 9 5 15 12 15 15 -1 13 33 77
41 77 4 0 8 6 8 12 0 13 14 29 101 117 94 93 119 116 119 108 0 -5 7 -1 16 8
26 25 134 97 134 88 0 -4 4 -3 8 3 11 16 82 57 82 47 0 -4 4 -3 8 2 7 11 71
42 86 43 5 0 12 4 15 9 3 4 29 16 56 27 78 29 189 68 200 70 6 1 15 4 20 8 6
3 26 9 45 13 19 4 39 10 44 13 6 3 19 7 30 8 12 2 32 5 46 9 14 3 55 11 93 17
37 7 67 15 67 18 0 4 14 5 30 2 17 -2 36 0 43 6 6 6 31 9 55 8 24 -1 45 1 48
6 3 4 28 8 57 9 29 0 100 3 160 5 l107 5 0 475 0 474 -1750 0 -1750 0 0 -1230z"/>
<path d="M3246 2368 c-8 -4 -35 -7 -61 -5 -25 1 -49 -1 -51 -5 -3 -4 -25 -8
-49 -8 -24 0 -46 -3 -49 -8 -2 -4 -20 -7 -40 -6 -20 1 -36 -2 -36 -6 0 -4 -13
-6 -30 -5 -16 1 -30 -1 -30 -4 0 -4 -36 -13 -80 -20 -44 -8 -80 -18 -80 -23 0
-5 -4 -7 -9 -4 -4 3 -42 -6 -82 -20 -41 -14 -81 -27 -89 -28 -8 -2 -32 -10
-54 -19 -21 -10 -41 -17 -45 -17 -3 0 -25 -9 -48 -20 -24 -11 -64 -30 -90 -42
-27 -12 -71 -36 -100 -55 -28 -18 -56 -33 -62 -33 -6 0 -11 -4 -11 -10 0 -5
-4 -9 -8 -7 -10 3 -93 -58 -131 -95 -16 -16 -31 -28 -35 -28 -9 0 -86 -76 -86
-85 0 -3 -10 -16 -23 -29 -30 -32 -53 -66 -50 -77 2 -5 -1 -9 -6 -9 -5 0 -18
-18 -30 -40 -11 -22 -33 -58 -48 -81 -15 -23 -33 -50 -39 -60 -6 -10 -25 -32
-41 -48 -17 -16 -29 -31 -27 -34 3 -2 -10 -16 -28 -31 -18 -15 -52 -43 -75
-64 -56 -50 -71 -62 -78 -62 -2 0 -16 -10 -30 -22 -42 -36 -285 -168 -310
-168 -8 0 -15 -5 -15 -11 0 -6 -7 -9 -15 -5 -8 3 -15 2 -15 -3 0 -5 -11 -12
-25 -15 -13 -3 -37 -11 -52 -18 -15 -6 -34 -13 -40 -15 -7 -1 -19 -5 -25 -6
-7 -2 -21 -7 -30 -10 -10 -4 -26 -10 -35 -14 -10 -3 -26 -5 -35 -4 -10 1 -18
-2 -18 -7 0 -5 -6 -9 -12 -10 -7 0 -24 -3 -38 -7 -14 -3 -42 -9 -62 -12 -21
-3 -38 -9 -38 -12 0 -4 -14 -6 -30 -5 -17 1 -32 -2 -35 -6 -3 -5 -15 -7 -26
-5 -11 2 -28 0 -37 -5 -22 -13 -169 -30 -250 -30 -34 0 -62 -4 -62 -9 0 -4
-46 -7 -102 -7 l-103 1 -3 -437 -2 -438 1750 0 1750 0 0 1188 0 1187 -120 0
c-67 0 -127 -3 -134 -7z"/>
</g>
</svg>
